<svg width="714" height="669" viewBox="0 0 714 669" fill="none" xmlns="http://www.w3.org/2000/svg">
<path d="M99.7659 618.338C95.7859 596.298 121.246 576.738 137.756 566.468C173.946 543.958 217.696 530.528 258.966 520.898C270.946 518.098 282.226 515.618 293.686 511.488C305.336 507.298 313.516 499.118 318.486 487.508C331.996 455.908 337.086 421.168 333.396 386.848C331.716 371.218 327.926 357.068 320.316 343.768C314.066 332.828 304.136 326.088 291.486 324.838C281.656 323.868 272.196 323.698 262.016 323.898C217.236 324.768 173.336 318.068 131.846 300.648C78.0859 278.068 34.8659 239.408 9.57588 186.428C0.105881 166.578 -8.62412 138.498 16.0859 125.788C24.4759 121.478 32.4959 118.088 41.9159 115.318C92.0859 100.558 145.026 97.0383 196.776 106.428C250.756 116.218 303.976 147.038 338.056 189.548L355.026 210.718C356.906 213.058 359.866 214.328 362.636 213.978C371.506 212.848 374.076 197.138 375.606 188.898C378.646 172.558 381.526 157.018 387.006 141.208C397.316 111.508 415.156 86.0283 439.056 65.4683C498.426 14.3983 582.866 -5.46168 659.626 1.26832C677.536 2.83832 707.426 7.25832 711.856 28.6183C713.926 38.5683 713.566 48.4883 711.876 58.7783C706.496 91.6283 694.216 122.548 675.126 149.798C651.576 183.408 618.836 207.968 580.796 223.098C536.876 240.558 500.786 240.238 457.826 251.068C444.696 254.378 432.316 258.848 421.386 266.828C396.556 284.948 393.716 320.238 400.566 348.288C405.716 369.358 413.066 388.888 419.936 409.568C429.886 439.558 435.036 470.028 435.006 501.648C435.006 512.028 442.006 518.288 452.116 520.178C483.366 526.038 513.556 533.628 543.096 545.858C568.696 556.458 606.416 575.618 621.116 599.198C630.096 613.608 625.336 630.138 610.406 637.978C598.826 644.058 586.666 647.988 573.436 650.818C496.766 667.238 412.766 669.808 334.116 668.518C292.826 667.838 252.696 665.408 211.846 660.828C185.146 657.838 159.626 653.448 134.236 645.478C121.696 641.538 102.316 632.478 99.7559 618.348L99.7659 618.338Z" fill="black" style="fill:black;fill-opacity:1;"/>
</svg>
